# xmcd
#
# Track frame offsets:
#	150
#	14294
#	33012
#	47201
#	63324
#	76648
#	88557
#	117306
#	137793
#	149666
#	179614
#
# Disc length: 3007 seconds
#
# Revision: 0
# Processed by: cddbd v1.5.2PL0 Copyright (c) Steve Scherf et al.
# Submitted via: audiograbber 1.83.01
#
DISCID=900bbd0b
DTITLE=B. B. King - Live At The Regal (Special Edition)
DYEAR=1964
DGENRE=Blues
TTITLE0=Every Day I Have The Blues
TTITLE1=Sweet Little Angel
TTITLE2=It's My Own Fault
TTITLE3=How Blue Can You Get
TTITLE4=Please Love Me
TTITLE5=You Upset Me Baby
TTITLE6=Worry Worry
TTITLE7=You Done Lost Your Good Thing
TTITLE8=Help The Poor
TTITLE9=The Thrill Is Gone
TTITLE10=Lucille
EXTD=
EXTT0=
EXTT1=
EXTT2=
EXTT3=
EXTT4=
EXTT5=
EXTT6=
EXTT7=
EXTT8=
EXTT9=
EXTT10=
PLAYORDER=
